<?xml version="1.0" standalone="no"?>
<!DOCTYPE svg PUBLIC "-//W3C//DTD SVG 20010904//EN"
 "http://www.w3.org/TR/2001/REC-SVG-20010904/DTD/svg10.dtd">
<svg version="1.0" xmlns="http://www.w3.org/2000/svg"
 width="2923.000000pt" height="505.000000pt" viewBox="0 0 2923.000000 505.000000"
 preserveAspectRatio="xMidYMid meet">

<g transform="translate(0.000000,505.000000) scale(0.100000,-0.100000)"
fill="#000000" stroke="none">
<path d="M9530 5001 c-188 -120 -271 -258 -271 -453 0 -150 28 -215 138 -319
38 -35 117 -97 175 -138 l107 -75 -72 -39 c-65 -36 -216 -105 -259 -120 -17
-6 -18 -42 -18 -574 l0 -568 -80 -80 c-44 -44 -80 -83 -80 -87 0 -4 46 -33
103 -64 175 -98 388 -224 485 -287 l93 -59 172 130 c360 271 479 404 534 593
21 76 29 383 13 551 -15 169 -39 260 -95 374 -91 186 -263 329 -620 518 -327
173 -438 303 -380 444 9 20 54 75 100 122 l84 85 -27 47 -28 47 -74 -48z m349
-1082 c187 -105 287 -230 333 -415 20 -80 22 -115 22 -344 1 -243 0 -260 -26
-366 -33 -141 -84 -243 -171 -347 l-23 -27 -165 111 c-90 61 -174 121 -186
132 l-23 20 0 568 0 567 88 65 c48 36 89 66 91 66 2 1 29 -13 60 -30z"/>
<path d="M26190 5007 c-207 -80 -316 -169 -440 -361 -41 -63 -78 -114 -81
-113 -4 1 -34 38 -66 82 -33 44 -85 107 -115 141 l-54 61 -37 -32 c-20 -18
-37 -35 -37 -38 0 -4 34 -56 75 -116 41 -60 89 -139 106 -175 57 -122 58 -141
59 -1051 l0 -830 -82 -82 c-50 -51 -79 -86 -73 -91 14 -13 405 -262 411 -262
3 0 40 33 82 73 89 84 191 167 310 253 6 4 -53 83 -63 83 -5 0 -41 -19 -79
-44 -38 -25 -74 -42 -80 -38 -6 4 -35 22 -63 40 l-53 34 0 777 c1 890 8 1125
39 1222 40 126 117 217 273 319 49 33 94 61 100 63 8 3 -35 119 -44 118 -2 -1
-41 -16 -88 -33z"/>
<path d="M6635 5015 c-135 -73 -141 -211 -24 -512 l41 -103 44 0 c42 0 45 2
74 53 84 146 131 322 111 413 -14 59 -43 107 -83 137 -37 27 -123 33 -163 12z"/>
<path d="M5360 4819 c-157 -161 -200 -199 -221 -199 -21 0 -38 15 -82 73 -31
39 -72 107 -92 150 -56 122 -64 109 -64 -108 0 -86 -5 -234 -11 -329 -20 -337
-30 -736 -30 -1172 l0 -442 -62 -56 c-35 -31 -73 -56 -85 -56 -12 0 -34 14
-50 31 -110 120 -256 189 -401 189 -95 0 -95 6 3 116 331 376 530 888 486
1249 -37 306 -168 522 -379 629 -122 62 -302 83 -427 51 -279 -73 -505 -411
-481 -720 7 -99 34 -198 69 -258 15 -25 60 -74 99 -109 201 -175 268 -258 268
-328 0 -81 -79 -94 -174 -30 -66 45 -99 49 -161 21 -78 -35 -113 -101 -100
-186 14 -95 82 -128 166 -81 53 29 72 32 87 13 9 -10 6 -23 -8 -50 -27 -49
-27 -87 0 -87 38 0 64 122 35 166 -16 26 -20 26 -83 20 -64 -7 -66 -6 -99 26
-27 26 -33 39 -33 75 0 48 19 67 80 78 45 8 82 -6 147 -56 28 -22 66 -42 85
-45 51 -9 117 13 155 51 31 31 33 37 33 107 -1 132 -52 202 -243 330 -191 128
-235 185 -277 356 -29 118 -23 180 25 279 89 182 308 280 510 228 86 -23 157
-69 242 -159 175 -186 264 -498 218 -771 -20 -123 -24 -135 -37 -135 -8 0 -9
38 -5 125 9 181 -21 323 -106 492 -65 128 -224 287 -299 299 -32 5 -36 2 -107
-86 -40 -50 -129 -144 -197 -208 -116 -109 -146 -152 -108 -152 9 0 43 21 76
48 52 40 67 47 103 46 140 -3 378 -285 442 -524 23 -86 22 -292 -1 -414 -31
-160 -93 -301 -163 -368 -15 -15 -55 -39 -88 -53 -138 -61 -297 -200 -357
-311 -75 -140 -77 -324 -4 -448 39 -66 140 -152 231 -196 168 -82 345 -115
605 -113 137 0 178 4 240 22 41 12 100 28 130 36 78 20 262 115 344 176 77 59
126 120 126 157 0 23 -4 21 -57 -30 -200 -190 -462 -296 -778 -314 -181 -11
-526 66 -661 147 -228 138 -248 396 -41 530 91 59 178 82 286 77 106 -5 171
-33 299 -128 93 -69 99 -87 61 -161 -26 -53 -22 -84 11 -84 20 0 31 11 56 58
59 111 313 407 350 407 13 0 22 -26 44 -125 45 -204 265 -337 530 -321 159 9
253 52 367 168 156 160 259 398 270 625 10 204 -21 387 -127 743 -79 268 -90
318 -90 427 0 122 14 202 47 268 29 59 61 94 167 183 117 98 172 200 116 215
-16 4 -23 -2 -34 -27 -17 -40 -64 -80 -112 -96 -22 -8 -70 -11 -123 -8 -71 3
-98 10 -153 37 -72 34 -102 65 -153 159 -16 31 -34 57 -40 58 -5 2 -98 -87
-205 -197z m10 -213 c123 -76 223 -99 337 -77 141 28 146 26 87 -42 -51 -60
-100 -167 -130 -282 -20 -78 -27 -133 -31 -253 -8 -222 -6 -230 157 -757 68
-217 85 -381 54 -518 -33 -145 -118 -268 -221 -319 -65 -32 -180 -32 -238 -1
-117 63 -187 201 -221 438 -14 94 -18 192 -18 450 -1 433 12 925 26 998 7 38
24 78 49 115 50 73 50 97 -1 147 -22 21 -40 46 -40 55 0 27 91 105 110 95 3
-2 39 -24 80 -49z"/>
<path d="M5190 3434 c0 -13 21 -30 63 -53 89 -49 194 -158 239 -251 51 -104
72 -218 64 -340 -6 -106 -38 -244 -69 -305 -11 -22 -23 -52 -28 -67 -6 -24 -5
-28 12 -28 26 0 95 145 116 245 22 103 13 326 -17 420 -47 150 -140 271 -267
348 -75 46 -113 56 -113 31z"/>
<path d="M21009 4976 c-185 -70 -317 -176 -433 -348 -33 -49 -62 -88 -66 -88
-3 0 -30 33 -58 73 -29 39 -76 98 -106 131 -58 64 -66 64 -114 13 l-24 -25 76
-110 c42 -61 90 -140 107 -176 57 -122 58 -140 59 -1056 l0 -835 -81 -81 -82
-82 39 -25 c181 -117 368 -226 377 -220 61 37 401 298 399 306 -5 18 -56 87
-65 87 -4 0 -40 -22 -79 -50 l-70 -50 -59 48 -58 47 0 506 -1 506 50 66 c57
75 214 237 231 237 25 0 123 -77 159 -124 89 -118 126 -246 141 -496 12 -187
6 -572 -11 -725 -31 -275 -100 -463 -264 -718 -42 -66 -76 -122 -76 -125 0
-12 54 -62 67 -62 36 0 225 209 316 350 215 333 318 710 318 1170 0 322 -45
537 -153 717 -71 120 -236 264 -354 309 l-42 16 -188 -189 -189 -188 -3 220
c-3 260 9 388 48 507 51 151 137 262 273 353 32 21 56 41 55 44 -2 4 -12 28
-23 54 -11 26 -22 47 -25 47 -3 -1 -44 -15 -91 -34z"/>
<path d="M17583 4869 c-22 -92 -71 -144 -328 -350 -178 -142 -306 -273 -347
-351 -27 -54 -32 -73 -32 -138 0 -125 52 -217 155 -271 33 -18 71 -45 84 -61
21 -25 30 -28 83 -28 35 0 110 -13 178 -31 66 -17 218 -48 339 -70 121 -21
254 -48 295 -59 168 -47 342 -157 429 -272 37 -49 111 -194 126 -245 13 -48
-14 -19 -66 68 -119 202 -318 331 -622 404 -56 14 -221 45 -367 69 -376 63
-515 112 -625 221 -66 65 -88 112 -93 202 -4 61 -1 78 18 108 27 44 21 53 -21
29 -74 -43 -135 -215 -127 -357 6 -101 28 -148 127 -267 40 -47 74 -92 77
-101 7 -19 150 -88 244 -118 94 -29 206 -48 365 -60 77 -7 194 -16 260 -22
336 -28 468 -77 604 -225 93 -101 116 -150 116 -249 0 -66 -5 -90 -27 -137
-80 -171 -302 -272 -498 -227 -73 17 -159 64 -255 138 -169 132 -230 174 -320
217 -135 64 -198 78 -350 78 -262 0 -479 -79 -600 -217 -57 -66 -80 -130 -79
-227 0 -190 116 -285 344 -283 115 1 173 18 346 103 115 57 214 130 214 158 0
23 -33 12 -80 -28 -233 -195 -562 -248 -718 -114 -59 50 -76 86 -76 164 0 147
111 240 307 256 118 10 267 -31 392 -107 30 -18 112 -75 182 -127 142 -105
194 -131 333 -170 83 -23 114 -26 240 -26 132 0 152 2 225 28 140 48 229 110
401 279 l111 108 22 -27 c29 -37 62 -145 68 -225 10 -123 -33 -236 -121 -323
-100 -99 -235 -142 -421 -133 -102 5 -122 10 -270 63 -158 57 -161 57 -275 58
-108 1 -118 -1 -166 -27 -28 -16 -58 -41 -68 -58 -20 -34 -23 -116 -6 -149 17
-32 82 -56 188 -71 118 -15 152 -45 100 -87 -55 -44 -68 -62 -68 -95 0 -41 24
-66 74 -74 46 -7 42 14 -9 41 -24 13 -35 26 -35 41 0 29 15 40 68 55 45 12 82
40 82 64 0 28 -23 77 -40 86 -10 6 -75 10 -144 10 -123 0 -126 1 -156 27 -43
38 -51 97 -20 136 22 28 23 28 114 24 78 -3 112 -11 236 -55 102 -36 173 -55
240 -63 368 -44 709 154 749 434 18 129 -15 267 -84 345 l-39 45 23 106 c48
223 53 263 47 366 -10 200 -93 409 -212 534 -80 86 -128 117 -276 181 -116 50
-409 130 -603 165 -266 47 -409 138 -431 271 -13 84 24 151 137 245 57 48 82
46 99 -7 18 -54 101 -137 177 -177 104 -54 178 -71 323 -71 144 -1 192 10 340
81 87 42 106 56 222 172 116 116 128 131 143 184 22 76 14 120 -31 165 l-34
34 -83 -4 c-49 -3 -104 -14 -137 -26 -78 -31 -183 -114 -262 -207 -80 -96 -96
-121 -81 -136 7 -7 37 22 96 93 133 161 233 231 345 245 99 11 156 -27 155
-106 -1 -62 -20 -97 -88 -159 -69 -63 -162 -109 -265 -130 -67 -14 -89 -14
-151 -4 -135 23 -219 77 -326 207 -95 116 -101 130 -78 204 10 33 15 67 12 75
-12 32 -32 15 -44 -35z"/>
<path d="M11625 4561 c-90 -26 -178 -77 -256 -149 l-70 -65 35 -36 c27 -26 40
-33 50 -26 252 182 377 214 532 135 158 -81 198 -237 88 -346 -104 -105 -267
-93 -483 36 -46 27 -88 50 -92 50 -4 0 -63 -62 -131 -137 -68 -76 -166 -184
-220 -241 -54 -58 -111 -131 -129 -165 -30 -56 -33 -71 -37 -168 -4 -89 -1
-119 17 -177 37 -124 131 -242 326 -410 l70 -61 226 232 226 232 43 -30 c24
-17 83 -68 132 -114 65 -61 96 -100 119 -147 29 -59 31 -70 27 -142 -3 -56
-12 -94 -31 -136 -26 -56 -114 -193 -157 -244 l-19 -23 -129 65 c-71 36 -173
84 -228 107 -97 41 -295 112 -299 107 -1 -2 -29 -50 -62 -108 -33 -58 -70
-121 -82 -142 l-22 -36 53 -18 c80 -26 304 -117 481 -196 l157 -70 58 50 c286
248 495 558 533 791 32 193 -77 384 -324 568 l-90 68 -228 -235 -227 -234
-125 125 c-153 153 -182 199 -182 290 0 56 5 76 38 140 21 41 50 89 66 108
l28 34 122 -62 c186 -95 299 -117 442 -87 208 44 338 188 369 406 29 204 -93
381 -313 455 -91 30 -209 33 -302 6z"/>
<path d="M17727 4148 c-27 -36 -87 -152 -87 -168 0 -21 40 -9 59 19 25 35 81
151 81 169 0 23 -29 12 -53 -20z"/>
<path d="M14460 4077 c-62 -60 -119 -105 -165 -129 -107 -57 -100 -48 -79
-108 13 -37 23 -50 34 -47 8 3 43 16 77 28 70 27 103 21 134 -21 37 -49 41
-113 46 -674 l5 -549 -82 -82 -82 -83 23 -15 c13 -8 120 -70 237 -137 190
-108 216 -120 233 -108 50 35 448 354 449 359 0 4 -17 25 -37 48 l-38 42 -109
-85 c-64 -50 -114 -82 -121 -78 -6 4 -46 32 -88 62 l-77 55 0 537 0 536 74 69
c40 37 101 87 135 111 l61 42 44 -59 c40 -55 106 -192 106 -221 0 -7 6 -10 13
-7 6 2 80 22 162 42 83 21 152 40 154 42 10 7 -44 176 -84 260 -50 105 -107
170 -198 222 l-57 33 -88 -82 c-84 -80 -188 -163 -284 -228 l-47 -33 -7 28
c-37 163 -79 237 -168 287 -74 43 -72 43 -176 -57z"/>
<path d="M7469 4094 c-72 -74 -159 -139 -236 -178 l-51 -25 16 -51 c9 -27 21
-50 28 -50 6 0 42 11 79 25 l66 25 28 -20 c39 -27 68 -100 80 -200 7 -49 11
-288 11 -565 l0 -480 -90 -90 -90 -90 98 -65 c53 -36 132 -93 175 -128 l78
-64 55 49 c31 26 100 82 155 124 54 41 101 78 104 80 2 3 -36 40 -85 83 l-90
78 0 527 0 527 93 57 c50 32 151 88 223 125 l132 66 55 -44 55 -45 4 -671 3
-670 37 -75 c22 -42 65 -104 101 -143 l64 -70 104 76 c57 41 149 101 204 133
55 32 102 60 104 62 5 3 -17 74 -28 92 -5 8 -30 3 -82 -14 -81 -28 -107 -25
-147 18 -40 43 -42 81 -42 676 l0 574 77 72 77 72 -69 38 c-91 50 -162 96
-254 162 -41 29 -77 53 -82 53 -4 0 -32 -20 -62 -45 -104 -85 -222 -157 -402
-246 -100 -49 -184 -89 -188 -89 -4 0 -7 16 -7 35 0 141 -75 272 -190 330
l-47 24 -64 -65z"/>
<path d="M19460 4000 c-265 -171 -347 -238 -397 -321 -135 -228 -139 -806 -7
-1123 65 -154 194 -302 322 -369 111 -58 88 -64 330 84 119 73 241 148 269
166 l53 33 -22 45 c-12 25 -25 45 -29 45 -4 0 -73 -30 -153 -66 -122 -54 -152
-64 -179 -59 -147 32 -267 175 -317 380 -90 371 -20 810 163 1019 l44 49 53
-94 c95 -167 171 -279 183 -272 61 37 242 178 241 187 -1 7 -26 46 -56 87 -74
101 -168 242 -207 312 -18 31 -36 57 -39 56 -4 0 -117 -72 -252 -159z"/>
<path d="M6625 4099 c-38 -28 -127 -87 -197 -131 -71 -44 -128 -83 -128 -86 0
-11 51 -92 58 -92 4 1 18 7 32 15 40 23 63 18 103 -23 l37 -38 0 -594 c0 -327
4 -632 10 -677 6 -54 18 -102 36 -138 34 -69 154 -201 175 -192 7 4 56 37 106
75 51 37 138 91 193 120 55 30 100 57 100 62 0 5 -9 29 -20 54 l-19 46 -67
-25 c-81 -31 -98 -31 -136 -4 -58 42 -58 37 -58 646 l0 558 83 90 84 90 -150
145 c-82 80 -155 146 -161 147 -6 1 -42 -21 -81 -48z"/>
<path d="M13118 3982 l-338 -166 0 -561 0 -560 -87 -87 c-48 -48 -85 -89 -82
-92 8 -7 689 -376 694 -376 14 0 396 264 452 312 177 150 235 278 253 556 25
390 -68 725 -269 970 -68 82 -209 173 -264 171 -12 0 -174 -76 -359 -167z
m239 -128 c88 -55 179 -152 226 -242 70 -134 97 -276 97 -512 0 -164 -20 -301
-60 -423 -30 -88 -98 -228 -124 -255 -11 -11 -49 9 -214 108 l-202 121 0 569
0 569 78 60 c90 71 93 71 199 5z"/>
<path d="M22535 3986 c-182 -89 -336 -165 -343 -169 -9 -6 -12 -133 -12 -572
l0 -563 -85 -80 -85 -81 33 -19 c17 -11 175 -97 350 -192 l318 -172 112 72
c312 200 455 327 521 461 52 106 66 185 73 404 5 163 2 207 -15 310 -48 277
-154 499 -310 648 -61 57 -168 118 -207 116 -11 0 -169 -74 -350 -163z m201
-115 c179 -100 294 -272 335 -501 17 -99 17 -421 0 -520 -19 -108 -57 -223
-106 -320 -71 -141 -42 -140 -271 -3 l-199 119 -2 574 -2 575 77 57 c42 32 82
57 87 58 6 0 42 -18 81 -39z"/>
<path d="M24537 4142 c-3 -4 -154 -79 -336 -167 l-331 -160 0 -562 0 -562 -87
-85 c-49 -46 -86 -86 -83 -89 3 -2 162 -88 353 -192 l348 -188 204 137 c304
204 407 312 461 480 50 158 57 479 15 683 -66 322 -230 586 -422 682 -59 30
-112 40 -122 23z m-139 -256 c169 -86 293 -245 347 -446 26 -96 33 -471 11
-597 -24 -140 -91 -311 -164 -422 -8 -10 -55 14 -216 109 l-206 122 0 567 0
566 82 63 c46 34 86 62 91 62 4 0 29 -11 55 -24z"/>
<path d="M4740 3390 c-91 -66 -138 -143 -153 -252 -3 -21 -2 -38 2 -38 16 0
29 25 46 85 24 83 57 128 126 172 35 22 59 45 59 56 0 26 -19 20 -80 -23z"/>
<path d="M16441 3160 c-73 -73 -43 -179 64 -233 114 -57 310 -35 460 52 104
61 223 176 202 197 -13 13 -52 -11 -115 -71 -40 -37 -97 -78 -142 -100 -74
-37 -75 -38 -164 -31 -99 8 -149 24 -165 54 -6 12 -11 47 -11 79 0 69 -10 83
-61 83 -28 0 -45 -7 -68 -30z"/>
<path d="M18010 2764 c-212 -38 -337 -80 -400 -133 -41 -34 -33 -51 13 -32
252 103 412 130 635 108 72 -7 82 -6 82 8 0 30 -67 48 -190 51 -63 1 -126 0
-140 -2z"/>
<path d="M2396 1489 c-78 -69 -101 -134 -73 -202 28 -67 68 -72 131 -17 l34
30 -25 62 c-24 59 -25 83 -7 146 9 32 -7 27 -60 -19z"/>
<path d="M2649 1483 c-28 -26 -57 -60 -65 -75 -19 -36 -18 -90 3 -133 27 -56
71 -56 131 -2 27 25 27 32 1 92 -21 47 -22 103 -4 148 13 31 -14 19 -66 -30z"/>
<path d="M26612 1509 c-66 -33 -68 -40 -41 -119 21 -63 22 -74 11 -116 -7 -26
-10 -49 -8 -51 10 -10 98 72 122 112 27 47 30 90 10 140 -21 50 -44 58 -94 34z"/>
<path d="M26874 1511 c-21 -10 -47 -27 -57 -39 -18 -19 -18 -21 1 -59 29 -56
35 -96 21 -142 -7 -23 -9 -44 -5 -48 4 -4 36 22 71 58 75 77 87 114 60 185
-22 58 -40 67 -91 45z"/>
<path d="M12677 1496 c-73 -30 -117 -64 -169 -129 -52 -66 -78 -122 -98 -217
-14 -66 -19 -75 -41 -78 -40 -6 -44 -19 -15 -57 39 -50 49 -140 43 -365 -5
-190 -13 -237 -50 -277 -11 -13 -17 -29 -13 -38 5 -13 17 -15 83 -9 97 8 117
16 140 51 16 25 18 55 18 320 0 213 3 295 12 304 9 9 26 8 73 -5 56 -16 63
-16 86 -1 14 9 24 25 24 40 0 21 -5 24 -57 31 -49 6 -63 4 -95 -15 -23 -13
-39 -17 -43 -11 -12 20 -9 244 4 290 13 43 76 120 100 120 6 0 17 -16 25 -35
8 -19 20 -35 25 -35 20 0 44 52 45 93 1 53 -16 57 -97 23z"/>
<path d="M16624 1456 c-143 -103 -128 -42 -135 -535 -5 -346 -9 -437 -22 -486
-27 -101 -34 -95 99 -95 l116 0 -6 33 c-11 65 -17 285 -9 371 l8 89 48 15 c26
8 63 30 83 49 42 39 57 41 88 10 59 -59 94 -265 66 -388 -19 -84 -95 -233
-136 -264 -35 -27 -45 -55 -19 -55 47 0 202 104 248 168 65 88 81 142 82 277
0 109 -2 125 -26 175 -36 77 -81 125 -145 155 -87 41 -114 37 -178 -23 -69
-66 -102 -70 -112 -15 -4 21 -4 127 -1 238 l6 200 34 67 c52 101 36 104 -89
14z"/>
<path d="M4748 1461 l-47 -48 43 -46 43 -46 28 29 c16 16 37 32 47 36 27 8 22
24 -25 76 l-42 47 -47 -48z"/>
<path d="M5628 1460 l-48 -49 23 -18 c13 -10 32 -31 42 -46 l18 -28 26 24 c14
14 39 32 54 42 l28 18 -29 31 c-16 17 -35 41 -41 54 -7 12 -15 22 -19 21 -4 0
-28 -22 -54 -49z"/>
<path d="M9498 1460 l-48 -49 23 -18 c13 -10 32 -31 42 -46 l18 -28 26 24 c14
14 39 32 54 42 l28 18 -29 31 c-16 17 -35 41 -41 54 -7 12 -15 22 -19 21 -4 0
-28 -22 -54 -49z"/>
<path d="M11110 1452 c-31 -31 -72 -70 -93 -87 l-38 -30 21 -60 c18 -48 22
-85 23 -182 1 -67 -1 -124 -4 -128 -4 -3 -35 6 -70 21 -164 68 -302 27 -376
-113 -100 -188 -46 -430 114 -512 71 -35 145 -43 252 -25 68 12 127 15 203 11
67 -3 108 -2 108 4 0 5 -7 20 -15 33 -9 13 -23 57 -32 97 -14 63 -17 143 -17
541 -1 305 -5 471 -11 477 -7 7 -28 -8 -65 -47z m-182 -508 c20 -8 49 -27 65
-41 l27 -27 0 -227 c0 -257 9 -232 -87 -244 -93 -12 -157 27 -188 114 -35 100
-27 324 13 381 22 29 77 60 110 60 12 0 39 -7 60 -16z"/>
<path d="M20858 1460 l-47 -47 32 -30 c18 -16 37 -37 43 -48 10 -18 14 -16 62
25 l51 45 -28 30 c-16 16 -34 40 -40 53 -7 12 -15 22 -19 21 -4 -1 -28 -23
-54 -49z"/>
<path d="M26361 1462 c-23 -28 -64 -64 -91 -82 -28 -18 -50 -35 -50 -39 0 -5
9 -34 21 -67 16 -46 21 -86 22 -181 1 -67 -1 -124 -4 -128 -4 -3 -35 6 -70 22
-52 22 -79 27 -144 28 -70 0 -86 -3 -128 -28 -116 -68 -180 -243 -147 -402 30
-144 114 -228 254 -254 47 -9 78 -8 155 5 68 12 127 15 203 11 60 -3 108 -2
108 1 0 4 -7 17 -15 30 -9 12 -23 57 -32 99 -14 66 -17 152 -17 545 -1 328 -4
470 -12 478 -8 8 -22 -2 -53 -38z m-193 -518 c20 -8 49 -27 65 -41 l27 -27 0
-227 0 -227 -22 -5 c-141 -34 -215 -4 -253 103 -36 100 -28 324 13 380 22 29
77 60 110 60 12 0 39 -7 60 -16z"/>
<path d="M5075 1429 c-49 -38 -93 -70 -97 -71 -5 -2 -4 -68 2 -148 5 -80 10
-299 10 -488 0 -217 4 -350 10 -363 9 -17 22 -19 101 -19 102 0 111 7 83 62
-15 29 -18 80 -22 469 -4 408 1 554 25 615 11 28 -24 11 -112 -57z"/>
<path d="M5360 1435 c-116 -87 -123 -94 -114 -113 12 -28 22 -319 23 -647 1
-228 4 -314 13 -323 14 -14 184 -17 192 -3 3 5 -2 26 -11 47 -14 34 -17 97
-21 479 -3 317 -1 463 8 522 7 46 12 86 12 90 -1 18 -22 7 -102 -52z"/>
<path d="M18052 1423 c-100 -74 -103 -78 -97 -108 4 -16 11 -239 17 -495 7
-326 14 -467 22 -472 13 -9 180 -11 189 -2 3 3 -3 26 -14 50 -17 41 -19 82
-25 452 -6 384 -2 499 22 621 4 17 3 31 -2 31 -5 -1 -56 -35 -112 -77z"/>
<path d="M18374 1457 c-28 -23 -72 -57 -98 -75 -45 -31 -48 -35 -42 -65 4 -18
11 -241 17 -497 7 -340 13 -467 22 -472 7 -4 51 -8 100 -8 97 0 98 1 72 64
-13 30 -17 112 -22 449 -5 387 -1 498 23 615 9 44 -8 41 -72 -11z"/>
<path d="M25660 1493 c0 -5 -32 -30 -71 -58 -131 -93 -124 -83 -111 -151 7
-35 14 -239 18 -494 4 -313 9 -437 17 -442 14 -9 181 -11 190 -2 3 3 -3 26
-14 51 -17 40 -19 81 -25 451 -6 384 -2 499 22 621 5 24 3 31 -10 31 -9 0 -16
-3 -16 -7z"/>
<path d="M3210 1478 c-52 -5 -150 -7 -217 -5 l-123 5 0 -44 c0 -53 30 -117 65
-140 48 -31 94 -21 239 50 193 95 264 110 363 81 67 -20 118 -71 138 -137 8
-28 15 -59 15 -68 0 -36 -31 -117 -55 -142 l-26 -28 -166 0 -166 0 7 145 8
145 -74 -31 c-99 -42 -186 -96 -193 -120 -12 -37 -7 -223 10 -373 11 -91 16
-190 13 -253 -5 -100 -6 -103 -42 -149 -61 -79 -37 -91 85 -41 l82 34 76 -24
c252 -77 529 -77 707 2 87 38 122 108 110 220 -13 131 -116 265 -279 365 l-87
53 55 23 c68 27 120 66 139 102 38 76 27 150 -35 217 -99 107 -316 145 -649
113z m431 -513 c57 -20 112 -75 140 -139 33 -74 33 -203 1 -268 -63 -127 -217
-183 -393 -144 -41 9 -89 25 -107 36 l-33 21 20 33 c37 60 44 133 27 277 -9
70 -16 144 -16 164 l0 35 159 0 c117 0 170 -4 202 -15z"/>
<path d="M7577 1353 c-2 -5 -12 -33 -22 -63 -31 -96 -62 -147 -110 -180 -25
-17 -45 -35 -45 -39 0 -5 16 -21 35 -35 l35 -27 0 -197 c0 -190 -12 -390 -25
-444 l-7 -26 141 -1 c77 0 142 3 145 8 3 4 -6 19 -20 32 -57 53 -61 73 -68
349 -4 140 -3 269 2 285 7 26 13 30 49 33 32 2 47 -3 72 -24 39 -33 54 -23 49
32 l-3 39 -82 5 c-45 3 -85 9 -88 12 -4 4 -11 57 -16 118 -5 61 -11 116 -15
121 -6 11 -21 12 -27 2z"/>
<path d="M11514 1037 c-99 -33 -136 -74 -142 -157 -7 -96 19 -128 186 -230
149 -91 184 -151 127 -218 -50 -60 -163 -63 -262 -8 l-41 24 -47 -48 c-26 -27
-46 -53 -43 -60 5 -16 348 -18 404 -2 81 24 154 123 154 209 -1 99 -46 160
-196 263 -58 41 -113 85 -121 97 -32 48 24 101 91 88 17 -4 56 -22 88 -41 31
-19 60 -34 66 -34 10 0 28 108 19 116 -2 3 -58 7 -123 9 -84 4 -131 1 -160 -8z"/>
<path d="M16020 1041 c-88 -27 -184 -113 -223 -199 -32 -73 -36 -209 -6 -286
61 -164 237 -248 419 -202 87 22 211 108 189 131 -4 3 -40 -8 -82 -25 -41 -16
-93 -30 -114 -30 -84 1 -171 70 -222 179 -22 47 -26 70 -26 141 0 73 4 92 28
138 36 69 76 94 140 89 58 -5 90 -32 113 -96 23 -62 31 -69 49 -44 8 11 37 35
65 53 27 18 50 37 50 42 0 24 -65 67 -139 91 -82 27 -185 35 -241 18z"/>
<path d="M18773 1036 c-58 -19 -105 -50 -147 -96 -122 -135 -126 -357 -8 -491
17 -20 60 -51 94 -69 54 -29 75 -35 151 -38 54 -3 105 0 134 8 63 18 161 85
169 116 9 35 -2 41 -34 21 -64 -42 -97 -51 -182 -52 -72 0 -91 4 -128 25 -53
30 -81 74 -89 137 -7 64 15 116 59 140 28 15 53 18 167 15 73 -1 151 3 172 8
38 10 39 12 39 56 0 80 -57 158 -150 205 -56 28 -183 36 -247 15z m168 -95
c23 -24 29 -38 29 -74 0 -55 -15 -70 -66 -62 -43 7 -108 -12 -155 -45 l-29
-21 0 34 c0 55 27 131 57 159 34 31 47 36 96 37 30 1 45 -6 68 -28z"/>
<path d="M4480 1024 c-19 -8 -56 -33 -82 -55 -41 -35 -48 -37 -48 -20 0 11
-11 32 -24 48 -24 28 -25 28 -132 25 -60 -2 -110 -5 -113 -7 -2 -3 9 -21 25
-42 52 -66 51 -60 46 -327 l-5 -252 24 -26 c18 -21 42 -31 101 -43 135 -27
166 -18 128 35 -67 93 -91 219 -71 363 19 134 74 204 151 193 31 -5 60 -27 60
-47 0 -4 -12 -21 -26 -38 l-26 -31 30 0 c39 0 85 38 112 94 25 53 20 86 -22
121 -34 29 -76 32 -128 9z"/>
<path d="M13924 1020 c-23 -12 -60 -37 -83 -56 -36 -31 -41 -33 -41 -15 0 11
-11 32 -24 48 -24 28 -25 28 -127 25 -56 -2 -106 -5 -110 -8 -5 -3 10 -28 32
-56 l41 -52 -7 -250 c-6 -237 -5 -253 13 -281 21 -33 70 -50 183 -62 72 -7 79
4 40 63 -53 80 -63 129 -59 277 3 115 6 138 27 180 29 60 73 90 119 83 62 -9
81 -46 42 -81 -27 -25 -25 -35 7 -35 34 0 108 75 118 120 14 63 -34 120 -102
120 -15 0 -47 -9 -69 -20z"/>
<path d="M23134 1019 c4 -13 16 -60 27 -104 59 -238 104 -349 198 -488 66 -98
79 -99 114 -10 27 68 99 173 155 227 l30 28 18 -33 c9 -18 41 -70 71 -114 29
-45 59 -104 66 -131 18 -75 35 -69 106 36 104 155 175 329 201 492 17 104 15
108 -64 108 -36 0 -67 -4 -70 -8 -3 -5 5 -18 18 -30 38 -32 50 -112 32 -201
-17 -83 -69 -196 -94 -206 -24 -9 -86 62 -126 145 -28 59 -31 74 -30 155 1 50
3 101 5 115 l4 25 -102 3 c-57 1 -103 -1 -103 -5 0 -9 25 -191 36 -260 6 -39
4 -43 -52 -106 -33 -36 -64 -66 -70 -66 -17 -1 -70 62 -98 117 -38 75 -56 150
-56 232 l0 77 -72 7 c-40 4 -91 9 -112 13 -38 6 -39 5 -32 -18z"/>
<path d="M25290 1014 c-25 -14 -59 -39 -76 -56 l-32 -30 -7 30 c-12 58 -34 67
-153 64 -58 -2 -108 -5 -110 -7 -5 -4 11 -29 50 -78 22 -27 22 -32 19 -286 -3
-258 -3 -258 21 -285 18 -21 40 -30 101 -41 137 -26 165 -18 127 35 -43 61
-69 134 -76 215 -11 139 20 269 76 320 30 27 106 28 126 1 19 -26 18 -30 -12
-65 l-26 -31 33 0 c63 0 142 115 119 175 -13 35 -58 65 -99 65 -20 0 -56 -12
-81 -26z"/>
<path d="M13027 1016 c-137 -51 -227 -188 -227 -346 0 -145 64 -250 188 -308
49 -23 70 -27 152 -27 82 0 103 4 150 26 82 39 135 90 172 167 30 60 33 75 33
152 -1 70 -5 95 -27 142 -34 73 -103 142 -176 176 -69 32 -202 41 -265 18z
m176 -52 c4 -4 -9 -24 -28 -46 -44 -48 -47 -73 -7 -63 72 19 108 2 143 -66 67
-132 34 -326 -64 -372 -103 -49 -208 8 -251 136 -21 62 -21 199 0 260 20 58
86 134 127 146 39 11 72 13 80 5z"/>
<path d="M24373 1000 c-75 -38 -126 -92 -166 -179 -27 -57 -31 -77 -32 -151 0
-77 3 -92 33 -152 56 -113 155 -177 287 -186 93 -6 166 15 236 68 111 83 163
209 140 335 -16 84 -44 135 -106 194 -76 72 -129 94 -240 99 -85 3 -94 2 -152
-28z m211 -38 c3 -5 -10 -24 -29 -42 -41 -40 -48 -76 -12 -66 12 3 31 8 42 11
32 9 80 -29 106 -81 17 -36 24 -71 27 -137 5 -104 -11 -156 -63 -207 -28 -27
-44 -34 -88 -38 -76 -6 -127 22 -166 89 -90 158 -48 394 81 458 44 22 93 28
102 13z"/>
<path d="M4660 1009 c0 -7 11 -25 25 -39 25 -26 26 -30 35 -256 9 -234 5 -295
-23 -337 -9 -14 -13 -27 -10 -31 4 -3 56 -6 117 -6 l111 0 -3 327 c-2 181 -7
332 -12 337 -5 5 -61 11 -124 14 -93 4 -116 2 -116 -9z"/>
<path d="M5540 1006 c0 -8 9 -21 21 -29 31 -22 37 -69 45 -307 7 -207 6 -217
-15 -264 -11 -27 -21 -52 -21 -57 0 -5 55 -9 121 -9 l121 0 -8 23 c-4 12 -9
162 -11 333 l-4 311 -46 7 c-25 3 -81 6 -124 6 -62 0 -79 -3 -79 -14z"/>
<path d="M6080 1011 c-127 -41 -207 -151 -217 -300 -9 -125 30 -227 113 -300
83 -73 181 -93 329 -67 112 20 161 20 214 1 38 -13 41 -13 41 3 0 10 -4 22 -9
28 -5 5 -16 33 -25 63 -19 64 -22 380 -5 446 20 76 19 78 -46 102 -35 13 -83
22 -115 22 -30 0 -100 3 -155 5 -55 3 -111 2 -125 -3z m239 -65 c20 -18 21
-30 21 -266 0 -284 3 -275 -86 -274 -39 0 -62 7 -93 27 -113 75 -155 294 -83
437 39 78 79 103 159 98 42 -3 68 -10 82 -22z"/>
<path d="M6711 1006 c-42 -6 -76 -17 -79 -24 -2 -6 1 -12 6 -12 6 0 27 -15 47
-34 l36 -34 -2 -279 -1 -278 87 -3 c115 -4 117 -3 99 47 -16 48 -31 377 -20
464 7 55 9 58 49 78 22 12 66 24 98 26 100 10 102 3 119 -347 5 -102 14 -200
20 -218 17 -47 59 -65 163 -70 72 -4 87 -2 87 10 0 8 -8 23 -19 32 -10 9 -30
43 -45 75 -43 96 -56 184 -56 376 l0 173 -77 17 c-110 25 -191 14 -325 -40
-14 -5 -18 -2 -18 14 0 41 -36 47 -169 27z"/>
<path d="M8508 1009 c-10 -5 -56 -15 -103 -21 -49 -6 -85 -15 -85 -22 0 -6 13
-23 29 -38 36 -34 40 -58 47 -298 6 -168 4 -200 -10 -234 -9 -21 -16 -42 -16
-47 0 -5 48 -9 106 -9 98 0 105 1 98 18 -5 9 -9 136 -9 282 l0 265 54 28 c30
15 67 27 82 27 51 0 54 -18 54 -333 l0 -288 90 3 90 3 -2 45 c0 25 -4 138 -9
251 -4 113 -4 218 0 233 12 49 159 100 183 64 4 -7 11 -128 14 -268 6 -284 9
-300 68 -323 46 -19 183 -26 188 -11 2 7 -10 34 -27 60 -57 90 -63 131 -55
369 7 208 7 213 -14 234 -40 40 -187 23 -303 -35 -45 -23 -48 -23 -48 -6 0 66
-123 81 -270 33 -52 -16 -95 -29 -95 -28 -1 1 -6 14 -13 30 -13 29 -18 32 -44
16z"/>
<path d="M9410 1006 c0 -8 9 -21 21 -29 31 -22 37 -69 45 -307 7 -207 6 -217
-15 -264 -11 -27 -21 -52 -21 -57 0 -5 55 -9 121 -9 l121 0 -8 23 c-4 12 -9
162 -11 333 l-4 311 -46 7 c-25 3 -81 6 -124 6 -62 0 -79 -3 -79 -14z"/>
<path d="M9821 1006 c-41 -6 -76 -16 -78 -21 -1 -6 10 -17 26 -27 60 -34 62
-43 64 -315 0 -136 -1 -259 -3 -273 l-5 -25 100 0 c84 0 99 2 96 15 -2 8 -7
31 -12 50 -13 53 -23 356 -15 433 8 66 8 68 49 88 22 12 66 24 98 26 100 9
103 1 119 -342 4 -104 14 -205 20 -223 17 -47 59 -65 163 -70 72 -4 87 -2 87
10 0 8 -8 23 -19 32 -29 26 -70 127 -86 212 -10 48 -15 138 -15 245 0 167 0
169 -22 173 -13 3 -47 10 -77 17 -71 15 -162 6 -246 -25 -37 -15 -69 -26 -71
-26 -2 0 -4 9 -4 20 0 40 -37 46 -169 26z"/>
<path d="M14765 1008 c-89 -33 -164 -114 -191 -205 -25 -86 -16 -222 19 -290
76 -147 216 -205 408 -169 104 19 161 20 214 1 21 -8 41 -12 44 -9 3 2 -6 26
-20 52 -23 45 -24 57 -27 268 -3 179 -1 228 12 257 17 42 14 46 -62 76 -32 13
-75 21 -105 21 -29 -1 -99 1 -157 4 -66 4 -116 1 -135 -6z m234 -53 c16 -8 31
-22 35 -30 3 -9 6 -124 6 -255 0 -266 2 -259 -73 -267 -86 -9 -179 70 -212
179 -20 67 -19 180 1 249 11 37 29 67 59 96 40 41 46 43 99 43 31 0 70 -7 85
-15z"/>
<path d="M17420 1011 c-52 -17 -89 -42 -133 -91 -61 -68 -82 -131 -82 -245 0
-76 5 -99 27 -146 74 -161 209 -221 413 -185 112 20 161 20 214 1 49 -17 51
-11 19 61 -20 43 -23 70 -26 229 -2 113 0 201 8 235 20 96 21 92 -45 117 -35
13 -83 22 -115 22 -30 0 -100 3 -155 5 -55 3 -111 2 -125 -3z m234 -62 l26
-20 0 -249 c0 -246 0 -249 -22 -264 -46 -33 -133 -12 -188 45 -118 122 -113
404 10 487 45 30 136 31 174 1z"/>
<path d="M19290 1005 c-41 -7 -77 -13 -79 -14 -2 0 17 -20 42 -43 l45 -43 7
-135 c6 -120 3 -331 -7 -400 -3 -25 -3 -25 86 -28 109 -3 121 0 105 29 -16 31
-33 333 -24 447 l7 94 47 21 c66 29 140 34 168 11 19 -16 24 -35 33 -129 5
-60 10 -155 10 -209 0 -123 16 -218 41 -245 10 -11 36 -25 56 -30 46 -13 170
-14 177 -2 3 4 -5 18 -18 30 -34 32 -72 122 -91 216 -12 57 -16 125 -14 243 1
122 -2 166 -11 172 -26 16 -162 33 -216 26 -31 -4 -85 -18 -119 -31 -74 -30
-75 -30 -75 -7 0 44 -33 49 -170 27z"/>
<path d="M20252 1006 c-130 -43 -221 -172 -230 -327 -8 -141 46 -246 152 -295
61 -28 166 -32 242 -9 27 8 53 15 58 15 5 0 7 -30 4 -67 -9 -117 -65 -192
-176 -233 -86 -32 -124 -27 -269 37 -7 3 -20 -9 -30 -28 -10 -18 -29 -43 -43
-56 -35 -35 -15 -43 107 -43 141 0 238 21 347 75 229 113 264 181 244 475 -11
151 1 319 27 391 8 24 17 48 18 53 1 5 -47 9 -108 10 -60 1 -153 5 -205 9 -71
5 -106 4 -138 -7z m216 -66 c33 -15 42 -24 38 -37 -18 -57 -26 -144 -26 -283
0 -168 -1 -172 -52 -185 -81 -20 -197 51 -237 146 -57 132 -4 318 104 365 44
19 123 17 173 -6z"/>
<path d="M20774 1009 c-3 -6 6 -21 21 -33 26 -21 28 -28 36 -137 4 -62 8 -179
8 -259 1 -124 -2 -151 -19 -189 -11 -24 -20 -45 -20 -47 0 -2 55 -4 121 -4
121 0 121 0 114 23 -4 12 -9 162 -12 333 l-5 312 -46 6 c-74 10 -190 7 -198
-5z"/>
<path d="M21225 1010 c-16 -4 -49 -8 -72 -9 -55 -1 -61 -15 -19 -43 59 -38 60
-45 60 -316 0 -136 -2 -258 -4 -272 l-5 -25 94 -3 c98 -3 124 5 102 32 -17 20
-32 310 -24 440 l6 99 46 20 c63 28 134 34 165 14 30 -20 35 -53 45 -310 12
-284 24 -306 171 -315 109 -6 120 -1 82 42 -70 80 -105 237 -100 459 3 181 10
168 -95 187 -84 15 -165 8 -243 -22 -73 -28 -72 -28 -87 2 -10 20 -21 25 -52
27 -22 0 -53 -2 -70 -7z"/>
<path d="M22143 1006 c-213 -70 -309 -389 -166 -555 72 -84 203 -114 329 -76
27 8 52 15 57 15 4 0 7 -26 7 -57 0 -112 -66 -201 -178 -243 -86 -32 -124 -27
-269 37 -7 3 -20 -9 -30 -28 -10 -18 -29 -43 -43 -56 -35 -35 -15 -43 112 -43
138 0 232 20 343 74 226 110 266 187 244 470 -11 153 0 326 27 399 8 23 16 46
17 51 1 5 -47 9 -108 10 -60 1 -153 5 -205 9 -70 5 -106 3 -137 -7z m215 -66
c23 -10 42 -20 42 -22 0 -2 -5 -19 -11 -38 -6 -19 -14 -123 -18 -230 l-6 -195
-30 -14 c-24 -12 -40 -12 -84 -3 -66 14 -115 51 -155 116 -26 41 -30 60 -34
137 -4 80 -2 94 22 142 43 88 98 127 181 127 28 0 69 -9 93 -20z"/>
</g>
</svg>
